# This file uses centimeters as units for non-parametric coordinates.

mtllib road.mtl
g default
v -1.000000 -0.100000 5.000000
v 1.000000 -0.100000 5.000000
v -1.000000 0.100000 5.000000
v 1.000000 0.100000 5.000000
v -1.000000 0.100000 -5.000000
v 1.000000 0.100000 -5.000000
v -1.000000 -0.100000 -5.000000
v 1.000000 -0.100000 -5.000000
v -1.000000 0.100000 0.291960
v 1.000000 0.100000 0.291960
v 1.000000 -0.100000 0.291960
v -1.000000 -0.100000 0.291960
v -1.000000 -0.100000 0.064999
v 1.000000 -0.100000 0.064999
v 1.000000 0.100000 0.064997
v -1.000000 0.100000 0.064997
v 0.801634 -0.100000 5.000000
v 0.801634 -0.100000 0.291960
v 0.801634 -0.100000 0.064999
v 0.801634 -0.100000 -5.000000
v 0.801634 0.100000 -5.000000
v 0.801634 0.100000 0.064997
v 0.801634 0.100000 0.291960
v 0.801634 0.100000 5.000000
v -0.817685 -0.100000 5.000000
v -0.817685 -0.100000 0.291960
v -0.817685 -0.100000 0.064999
v -0.817685 -0.100000 -5.000000
v -0.817685 0.100000 -5.000000
v -0.817685 0.100000 0.064997
v -0.817685 0.100000 0.291960
v -0.817685 0.100000 5.000000
v 0.801634 2.578399 0.115972
v 0.801634 2.578399 0.240986
v 0.915843 2.520402 0.240986
v 0.915843 2.520402 0.115972
v 0.801634 2.411655 0.103542
v 0.801634 2.411655 0.253415
v 1.000000 2.411655 0.240986
v 1.000000 2.411655 0.115972
v -0.007988 2.689699 0.123213
v -0.007988 2.689699 0.233745
v -0.052333 2.856442 0.240986
v -0.052333 2.856442 0.115972
v 0.147626 2.610156 0.103542
v 0.147626 2.610156 0.253415
v 0.191971 2.776899 0.240986
v 0.191971 2.776899 0.115972
v 0.147626 2.561203 0.064997
v 0.147626 2.561203 0.291960
v -0.007988 2.640746 0.233745
v -0.007988 2.640746 0.123213
v 0.147626 2.610156 0.571419
v -0.007988 2.689699 0.571419
v -0.007988 2.640746 0.571419
v 0.147626 2.561203 0.571419
v 0.147626 2.610156 -0.240953
v -0.007988 2.689699 -0.240953
v 0.147626 2.561203 -0.240953
v -0.007988 2.640746 -0.240953
vt 0.134271 0.904336
vt 0.131570 0.904336
vt 0.131570 0.884797
vt 0.134271 0.884797
vt 0.134271 0.971210
vt 0.131570 0.971210
vt 0.131570 0.848161
vt 0.134271 0.848161
vt 0.134271 0.998008
vt 0.131570 0.998008
vt 0.130468 0.069371
vt 0.135372 0.069371
vt 0.130468 0.001992
vt 0.135372 0.001992
vt 0.028737 0.001992
vt 0.028737 0.069371
vt 0.244816 0.001992
vt 0.244816 0.069371
vt 0.766319 0.331637
vt 0.599814 0.333180
vt 0.599779 0.329401
vt 0.766284 0.327858
vt 0.600595 0.417515
vt 0.767101 0.415972
vt 0.599052 0.251010
vt 0.765557 0.249467
vt 0.568946 0.045282
vt 0.571335 0.045282
vt 0.571491 0.101457
vt 0.568790 0.101457
vt 0.568946 0.028790
vt 0.571335 0.028790
vt 0.561077 0.045282
vt 0.561077 0.028790
vt 0.567688 0.001992
vt 0.572592 0.001992
vt 0.578631 0.028790
vt 0.578631 0.045282
vt 0.561077 0.001992
vt 0.578631 0.001992
vt 0.537444 0.001992
vt 0.542348 0.001992
vt 0.541515 0.780781
vt 0.538277 0.780781
vt 0.541515 0.847656
vt 0.538277 0.847656
vt 0.866002 0.352902
vt 0.861347 0.352902
vt 0.860150 0.312658
vt 0.867199 0.312658
vt 0.851471 0.352902
vt 0.851471 0.312658
vt 0.876701 0.312658
vt 0.876701 0.352902
vt 0.861958 0.418295
vt 0.851471 0.418295
vt 0.865391 0.418295
vt 0.876701 0.418295
vt 0.689007 0.448821
vt 0.685228 0.448856
vt 0.685075 0.432341
vt 0.688854 0.432306
vt 0.690256 0.583633
vt 0.686477 0.583668
vt 0.600893 0.449637
vt 0.600740 0.433123
vt 0.767398 0.448094
vt 0.767245 0.431580
vt 0.686618 0.598846
vt 0.690397 0.598811
vt 0.602143 0.584450
vt 0.768648 0.582907
vt 0.602283 0.599628
vt 0.768788 0.598085
vt 0.614695 0.156859
vt 0.615422 0.235250
vt 0.598908 0.235403
vt 0.598181 0.157012
vt 0.749508 0.155609
vt 0.750234 0.234001
vt 0.765412 0.233860
vt 0.764686 0.155469
vt 0.749473 0.151830
vt 0.614660 0.153080
vt 0.764651 0.151689
vt 0.748691 0.067496
vt 0.613879 0.068745
vt 0.763869 0.067355
vt 0.598146 0.153233
vt 0.597364 0.068898
vt 0.770774 0.812319
vt 0.604269 0.813863
vt 0.604116 0.797348
vt 0.770621 0.795805
vt 0.772023 0.947132
vt 0.605518 0.948675
vt 0.605659 0.963853
vt 0.772164 0.962310
vt 0.618942 0.615082
vt 0.620485 0.781588
vt 0.603971 0.781741
vt 0.602428 0.615236
vt 0.753755 0.613833
vt 0.755298 0.780338
vt 0.770476 0.780197
vt 0.768933 0.613692
vt 0.357923 0.780781
vt 0.379355 0.780781
vt 0.370262 0.817418
vt 0.357923 0.836957
vt 0.357923 0.001992
vt 0.379355 0.001992
vt 0.292056 0.903831
vt 0.287265 0.847656
vt 0.265661 0.930629
vt 0.270452 0.874453
vt 0.515246 0.151839
vt 0.493815 0.151839
vt 0.493815 0.095664
vt 0.506154 0.115203
vt 0.515246 0.930629
vt 0.493815 0.930629
vt 0.423156 0.084965
vt 0.427947 0.028790
vt 0.406344 0.058167
vt 0.401553 0.001992
vt 0.935080 0.352902
vt 0.910915 0.418295
vt 0.910915 0.378050
vt 0.935080 0.312658
vt 0.961868 0.312658
vt 0.986032 0.378050
vt 0.986032 0.418295
vt 0.961868 0.352902
vn 0.000000 0.000000 1.000000
vn 0.000000 0.000000 1.000000
vn 0.000000 0.000000 1.000000
vn 0.000000 0.000000 1.000000
vn 0.452780 0.891622 0.000000
vn 0.452780 0.891622 0.000000
vn 0.452780 0.891622 0.000000
vn 0.452780 0.891622 0.000000
vn 0.000000 0.000000 -1.000000
vn 0.000000 0.000000 -1.000000
vn 0.000000 0.000000 -1.000000
vn 0.000000 0.000000 -1.000000
vn 0.000000 -1.000000 0.000000
vn 0.000000 -1.000000 0.000000
vn 0.000000 -1.000000 0.000000
vn 0.000000 -1.000000 0.000000
vn 1.000000 0.000000 0.000000
vn 1.000000 0.000000 0.000000
vn 1.000000 0.000000 0.000000
vn 1.000000 0.000000 0.000000
vn -1.000000 0.000000 0.000000
vn -1.000000 0.000000 0.000000
vn -1.000000 0.000000 0.000000
vn -1.000000 0.000000 0.000000
vn 0.000000 1.000000 0.000000
vn 0.000000 1.000000 0.000000
vn 0.000000 1.000000 0.000000
vn 0.000000 1.000000 0.000000
vn 1.000000 0.000000 0.000000
vn 1.000000 0.000000 0.000000
vn 0.000000 -1.000000 0.000000
vn 0.000000 -1.000000 0.000000
vn -1.000000 0.000000 0.000000
vn -1.000000 0.000000 0.000000
vn 0.000000 -1.000000 0.000000
vn 0.000000 -1.000000 0.000000
vn 1.000000 0.000000 0.000000
vn 1.000000 0.000000 0.000000
vn 0.000000 1.000000 0.000000
vn 0.000000 1.000000 0.000000
vn 0.000000 1.000000 0.000000
vn 0.000000 1.000000 0.000000
vn -1.000000 0.000000 0.000000
vn -1.000000 0.000000 0.000000
vn 0.000000 -1.000000 0.000000
vn 0.000000 -1.000000 0.000000
vn 0.000000 -1.000000 0.000000
vn 0.000000 -1.000000 0.000000
vn 0.000000 0.000000 -1.000000
vn 0.000000 0.000000 -1.000000
vn 0.000000 1.000000 0.000000
vn 0.000000 1.000000 0.000000
vn 0.000000 1.000000 0.000000
vn 0.000000 1.000000 0.000000
vn 0.000000 0.000000 1.000000
vn 0.000000 0.000000 1.000000
vn 0.000000 -1.000000 0.000000
vn 0.000000 -1.000000 0.000000
vn 0.000000 -1.000000 0.000000
vn 0.000000 -1.000000 0.000000
vn 0.000000 0.000000 -1.000000
vn 0.000000 0.000000 -1.000000
vn 0.000000 1.000000 0.000000
vn 0.000000 1.000000 0.000000
vn 0.000000 1.000000 0.000000
vn 0.000000 1.000000 0.000000
vn 0.000000 0.000000 1.000000
vn 0.000000 0.000000 1.000000
vn -0.966407 -0.257016 0.000000
vn -0.966407 -0.257016 0.000000
vn -0.966407 -0.257016 0.000000
vn -0.966407 -0.257016 0.000000
vn 0.032141 0.021100 0.999261
vn 0.032101 0.021018 0.999264
vn 0.050868 0.060515 0.996870
vn 0.050868 0.060515 0.996870
vn 0.999687 0.025010 0.000000
vn 0.999687 0.025010 0.000000
vn 0.790845 0.612017 0.000000
vn 0.790845 0.612017 0.000000
vn 0.032101 0.021018 -0.999264
vn 0.032141 0.021100 -0.999261
vn 0.050868 0.060515 -0.996870
vn 0.050868 0.060515 -0.996870
vn -1.000000 -0.000000 0.000000
vn -1.000000 -0.000000 0.000000
vn -1.000000 -0.000000 0.000000
vn -1.000000 -0.000000 0.000000
vn 0.031308 0.019349 0.999322
vn 0.031308 0.019349 0.999322
vn 1.000000 0.000000 0.000000
vn 1.000000 0.000000 0.000000
vn 0.031308 0.019349 -0.999322
vn 0.031308 0.019349 -0.999322
vn -0.455144 -0.890418 0.000000
vn -0.455144 -0.890418 0.000000
vn -0.455144 -0.890418 0.000000
vn -0.455144 -0.890418 0.000000
vn 0.020896 0.070058 0.997324
vn -0.024973 0.030930 0.999210
vn -0.042953 0.015540 0.998956
vn -0.042953 0.015540 0.998956
vn 0.309593 0.950869 0.000000
vn 0.309593 0.950869 0.000000
vn 0.309593 0.950869 0.000000
vn 0.309593 0.950869 0.000000
vn -0.024973 0.030930 -0.999210
vn 0.020896 0.070058 -0.997324
vn -0.042953 0.015540 -0.998956
vn -0.042953 0.015540 -0.998956
vn -0.290431 -0.956896 0.000000
vn -0.290431 -0.956896 0.000000
vn -0.290431 -0.956896 0.000000
vn -0.290431 -0.956896 0.000000
vn 0.022416 0.071351 0.997199
vn 0.022416 0.071351 0.997199
vn 0.309593 0.950869 0.000000
vn 0.309593 0.950869 0.000000
vn 0.022416 0.071351 -0.997199
vn 0.022416 0.071351 -0.997199
vn 1.000000 0.000000 0.000000
vn 1.000000 0.000000 0.000000
vn 1.000000 0.000000 0.000000
vn 1.000000 0.000000 0.000000
vn 0.000000 0.000000 1.000000
vn 0.000000 0.000000 1.000000
vn 0.000000 0.000000 1.000000
vn 0.000000 0.000000 1.000000
vn -1.000000 -0.000000 0.000000
vn -1.000000 -0.000000 0.000000
vn -1.000000 -0.000000 0.000000
vn -1.000000 -0.000000 0.000000
vn 0.000000 0.000000 -1.000000
vn 0.000000 0.000000 -1.000000
vn 0.000000 0.000000 -1.000000
vn 0.000000 0.000000 -1.000000
vn 0.455144 0.890418 0.000000
vn 0.455144 0.890418 0.000000
vn 0.455144 0.890418 0.000000
vn 0.455144 0.890418 0.000000
vn -1.000000 -0.000000 -0.000000
vn -1.000000 -0.000000 -0.000000
vn -1.000000 -0.000000 -0.000000
vn -1.000000 -0.000000 -0.000000
vn -0.455144 -0.890418 -0.000000
vn -0.455144 -0.890418 -0.000000
vn -0.455144 -0.890418 -0.000000
vn -0.455144 -0.890418 -0.000000
vn 1.000000 0.000000 0.000000
vn 1.000000 0.000000 0.000000
vn 1.000000 0.000000 0.000000
vn 1.000000 0.000000 0.000000
vn 0.455144 0.890418 0.000000
vn 0.455144 0.890418 0.000000
vn 0.455144 0.890418 0.000000
vn 0.455144 0.890418 0.000000
vn 1.000000 0.000000 0.000000
vn 1.000000 0.000000 0.000000
vn 1.000000 0.000000 0.000000
vn 1.000000 0.000000 0.000000
vn -0.455144 -0.890418 0.000000
vn -0.455144 -0.890418 0.000000
vn -0.455144 -0.890418 0.000000
vn -0.455144 -0.890418 0.000000
vn -1.000000 -0.000000 0.000000
vn -1.000000 -0.000000 0.000000
vn -1.000000 -0.000000 0.000000
vn -1.000000 -0.000000 0.000000
s 1
g pCube1
usemtl initialShadingGroup
f 24/91/1 17/92/2 2/93/3 4/94/4
s off
f 33/1/5 34/2/6 35/3/7 36/4/8
s 2
f 20/99/9 21/100/10 6/101/11 8/102/12
s 3
f 18/59/13 19/60/14 14/61/15 11/62/16
s 4
f 10/11/17 11/13/18 14/14/19 15/12/20
s 5
f 16/19/21 13/20/22 12/21/23 9/22/24
s 6
f 23/75/25 24/76/26 4/77/27 10/78/28
s 4
f 2/15/29 11/13/18 10/11/17 4/16/30
s 3
f 17/67/31 18/59/13 11/62/16 2/68/32
s 5
f 9/22/24 12/21/23 1/25/33 3/26/34
s 3
f 19/60/14 20/65/35 8/66/36 14/61/15
s 4
f 15/12/20 14/14/19 8/17/37 6/18/38
s 6
f 21/87/39 22/84/40 15/89/41 6/90/42
s 5
f 7/23/43 13/20/22 16/19/21 5/24/44
s 3
f 25/72/45 26/63/46 18/59/13 17/67/31
f 26/63/46 27/64/47 19/60/14 18/59/13
f 27/64/47 28/71/48 20/65/35 19/60/14
s 2
f 28/103/49 29/104/50 21/100/10 20/99/9
s 6
f 29/86/51 30/83/52 22/84/40 21/87/39
f 30/83/52 31/79/53 23/75/25 22/84/40
f 31/79/53 32/80/54 24/76/26 23/75/25
s 1
f 32/95/55 25/96/56 17/92/2 24/91/1
s 3
f 12/70/57 26/63/46 25/72/45 1/74/58
f 13/69/59 27/64/47 26/63/46 12/70/57
f 7/73/60 28/71/48 27/64/47 13/69/59
s 2
f 5/105/61 29/104/50 28/103/49 7/106/62
s 6
f 16/85/63 30/83/52 29/86/51 5/88/64
f 9/82/65 31/79/53 30/83/52 16/85/63
f 3/81/66 32/80/54 31/79/53 9/82/65
s 1
f 1/97/67 25/96/56 32/95/55 3/98/68
s off
f 41/27/69 42/28/70 43/29/71 44/30/72
s 8
f 38/107/73 39/108/74 35/109/75 34/110/76
s 9
f 39/7/77 40/8/78 36/4/79 35/3/80
s 10
f 40/117/81 37/118/82 33/119/83 36/120/84
s off
f 22/41/85 23/42/86 38/43/87 37/44/88
s 8
f 23/111/89 10/112/90 39/108/74 38/107/73
s 9
f 10/11/91 15/12/92 40/8/78 39/7/77
s 10
f 15/121/93 22/122/94 37/118/82 40/117/81
s off
f 49/35/95 50/36/96 51/32/97 52/31/98
s 11
f 46/114/99 47/113/100 43/115/101 42/116/102
s 12
f 47/6/103 48/5/104 44/9/105 43/10/106
s 13
f 48/124/107 45/123/108 41/125/109 44/126/110
s off
f 37/44/111 38/43/112 46/45/113 45/46/114
s 11
f 38/107/115 34/110/116 47/113/100 46/114/99
s 12
f 34/2/117 33/1/118 48/5/104 47/6/103
s 13
f 33/119/119 37/118/120 45/123/108 48/124/107
s off
f 45/47/121 46/48/122 50/49/123 49/50/124
f 53/127/125 54/128/126 55/129/127 56/130/128
f 42/28/129 41/27/130 52/31/131 51/32/132
f 58/131/133 57/132/134 59/133/135 60/134/136
f 46/48/137 42/55/138 54/56/139 53/51/140
f 42/28/141 51/32/142 55/37/143 54/38/144
f 51/32/145 50/36/146 56/40/147 55/37/148
f 50/49/149 46/48/150 53/51/151 56/52/152
f 41/57/153 45/47/154 57/54/155 58/58/156
f 45/47/157 49/50/158 59/53/159 57/54/160
f 49/35/161 52/31/162 60/34/163 59/39/164
f 52/31/165 41/27/166 58/33/167 60/34/168
